<?xml version="1.0" encoding="UTF-8"?>
<!DOCTYPE svg PUBLIC "-//W3C//DTD SVG 1.1//EN" "http://www.w3.org/Graphics/SVG/1.1/DTD/svg11.dtd">
<svg xmlns="http://www.w3.org/2000/svg" version="1.1" width="304px" height="110px" style="shape-rendering:geometricPrecision; text-rendering:geometricPrecision; image-rendering:optimizeQuality; fill-rule:evenodd; clip-rule:evenodd" xmlns:xlink="http://www.w3.org/1999/xlink">
<g><path style="opacity:1" fill="#056cb7" d="M 191.5,40.5 C 187.671,41.069 184.337,40.4023 181.5,38.5C 182.172,34.8117 183.005,31.1451 184,27.5C 208.196,8.39255 235.363,2.55921 265.5,10C 270.759,12.1336 276.092,13.9669 281.5,15.5C 281.649,16.552 281.483,17.552 281,18.5C 252.002,7.51915 224.169,10.0191 197.5,26C 194.966,30.6689 192.966,35.5023 191.5,40.5 Z"/></g>
<g><path style="opacity:0.886" fill="#11507f" d="M 42.5,54.5 C 42.5,53.8333 42.1667,53.5 41.5,53.5C 40.4309,50.592 40.2642,47.592 41,44.5C 42.6604,38.8576 44.1604,33.1909 45.5,27.5C 49.1667,27.5 52.8333,27.5 56.5,27.5C 54.9899,35.2064 53.3232,42.8731 51.5,50.5C 54.6852,50.9804 57.5185,50.3137 60,48.5C 61.734,41.7992 63.5673,35.1325 65.5,28.5C 69.1073,27.5108 72.774,27.1774 76.5,27.5C 75.3235,36.5265 72.6568,45.0265 68.5,53C 67.1667,53.6667 65.8333,54.3333 64.5,55C 57.0869,55.7964 49.7535,55.6297 42.5,54.5 Z"/></g>
<g><path style="opacity:0.865" fill="#11517f" d="M 84.5,27.5 C 93.5,27.5 102.5,27.5 111.5,27.5C 109.167,36.8333 106.833,46.1667 104.5,55.5C 100.445,55.8242 96.4454,55.4909 92.5,54.5C 93.9702,50.9515 94.9702,47.2849 95.5,43.5C 92.7531,43.1866 90.0865,43.52 87.5,44.5C 86.0298,48.0485 85.0298,51.7151 84.5,55.5C 80.8333,55.5 77.1667,55.5 73.5,55.5C 74.8099,47.731 76.6432,40.0643 79,32.5C 80.7297,30.5981 82.563,28.9314 84.5,27.5 Z M 90.5,32.5 C 93.1667,32.5 95.8333,32.5 98.5,32.5C 98.1667,34.5 97.8333,36.5 97.5,38.5C 94.5525,38.2229 91.7191,38.5562 89,39.5C 89.011,37.1154 89.511,34.782 90.5,32.5 Z"/></g>
<g><path style="opacity:0.813" fill="#076eb7" d="M 155.5,40.5 C 151.833,40.5 148.167,40.5 144.5,40.5C 144.5,39.1667 144.5,37.8333 144.5,36.5C 145.791,34.051 146.791,31.3844 147.5,28.5C 151.107,27.5108 154.774,27.1774 158.5,27.5C 157.971,31.9487 156.971,36.282 155.5,40.5 Z"/></g>
<g><path style="opacity:0.837" fill="#046cb5" d="M 239.5,41.5 C 235.833,41.5 232.167,41.5 228.5,41.5C 229.5,36.8333 230.5,32.1667 231.5,27.5C 235.555,27.1758 239.555,27.5091 243.5,28.5C 242.3,32.9924 240.966,37.3258 239.5,41.5 Z"/></g>
<g><path style="opacity:0.852" fill="#056db6" d="M 261.5,39.5 C 256.786,39.3531 252.119,39.6864 247.5,40.5C 249.594,36.4719 250.927,32.1386 251.5,27.5C 255.555,27.1758 259.555,27.5091 263.5,28.5C 262.319,32.0716 261.652,35.7383 261.5,39.5 Z"/></g>
<g><path style="opacity:0.889" fill="#11507f" d="M 144.5,36.5 C 142.712,40.9529 141.212,45.6196 140,50.5C 138.269,52.6166 136.102,54.1166 133.5,55C 124.84,55.4998 116.173,55.6664 107.5,55.5C 109.833,46.1667 112.167,36.8333 114.5,27.5C 123.506,27.3336 132.506,27.5002 141.5,28C 144.125,30.1962 145.125,33.0295 144.5,36.5 Z M 124.5,32.5 C 127.167,32.5 129.833,32.5 132.5,32.5C 132.144,38.7658 130.477,44.5991 127.5,50C 125.19,50.4966 122.857,50.6633 120.5,50.5C 122.04,44.5463 123.373,38.5463 124.5,32.5 Z"/></g>
<g><path style="opacity:0.915" fill="#026bb4" d="M 173.5,39.5 C 169.958,39.8128 166.625,39.4794 163.5,38.5C 164.008,34.8026 164.674,31.1359 165.5,27.5C 169.514,27.3345 173.514,27.5012 177.5,28C 176.383,31.9982 175.05,35.8316 173.5,39.5 Z"/></g>
<g><path style="opacity:0.933" fill="#114f7e" d="M 36.5,50.5 C 33.5677,49.2003 31.2344,47.2003 29.5,44.5C 30.9204,41.6992 31.2537,38.8659 30.5,36C 26.5,35.3333 22.5,35.3333 18.5,36C 16.5723,39.4899 15.9056,42.9899 16.5,46.5C 18.4261,47.4861 20.4261,48.4861 22.5,49.5C 22.5,50.1667 22.8333,50.5 23.5,50.5C 23.5,51.1667 23.8333,51.5 24.5,51.5C 25.8333,52.1667 26.8333,53.1667 27.5,54.5C 22.3497,55.6507 17.0164,55.8174 11.5,55C 9.15226,54.6541 7.31892,53.4875 6,51.5C 6.02436,45.3867 7.02436,39.3867 9,33.5C 9.34588,31.1523 10.5125,29.3189 12.5,28C 21.2695,27.06 29.9362,27.3933 38.5,29C 39.7185,30.4382 40.3852,32.1049 40.5,34C 39.2407,39.5366 37.9074,45.0366 36.5,50.5 Z M 29.5,44.5 C 24.821,42.8909 20.4877,43.5576 16.5,46.5C 15.9056,42.9899 16.5723,39.4899 18.5,36C 22.5,35.3333 26.5,35.3333 30.5,36C 31.2537,38.8659 30.9204,41.6992 29.5,44.5 Z"/></g>
<g><path style="opacity:0.914" fill="#046ab5" d="M 225.5,39.5 C 221.833,39.5 218.167,39.5 214.5,39.5C 215.34,36.8255 215.84,34.1589 216,31.5C 213.595,32.2744 211.095,32.7744 208.5,33C 206.709,34.7897 206.375,36.623 207.5,38.5C 206.151,39.7965 204.818,39.6298 203.5,38C 200.854,37.5026 198.187,37.3359 195.5,37.5C 195.844,33.3158 197.844,30.1491 201.5,28C 210.494,27.5002 219.494,27.3336 228.5,27.5C 228.281,31.8002 227.281,35.8002 225.5,39.5 Z M 214.5,39.5 C 212.283,38.6314 209.95,38.298 207.5,38.5C 206.375,36.623 206.709,34.7897 208.5,33C 211.095,32.7744 213.595,32.2744 216,31.5C 215.84,34.1589 215.34,36.8255 214.5,39.5 Z"/></g>
<g><path style="opacity:0.95" fill="#0469b5" d="M 278.5,38.5 C 277.903,39.1386 277.07,39.472 276,39.5C 271.894,38.0697 267.727,37.0697 263.5,36.5C 264.52,32.6416 266.853,29.8083 270.5,28C 278.159,27.5003 285.826,27.3336 293.5,27.5C 293.773,29.451 293.107,30.951 291.5,32C 286.5,32.3333 281.5,32.6667 276.5,33C 273.743,36.8993 274.41,38.7326 278.5,38.5 Z"/></g>
<g><path style="opacity:0.551" fill="#268eca" d="M 195.5,37.5 C 198.187,37.3359 200.854,37.5026 203.5,38C 204.818,39.6298 206.151,39.7965 207.5,38.5C 209.95,38.298 212.283,38.6314 214.5,39.5C 218.167,39.5 221.833,39.5 225.5,39.5C 225.768,41.099 225.434,42.4324 224.5,43.5C 220.833,43.5 217.167,43.5 213.5,43.5C 210.5,43.5 207.5,43.5 204.5,43.5C 204.768,45.099 204.434,46.4324 203.5,47.5C 200.038,46.5184 196.371,46.185 192.5,46.5C 193.36,43.3676 194.36,40.3676 195.5,37.5 Z"/></g>
<g><path style="opacity:0.486" fill="#2690cb" d="M 263.5,36.5 C 267.727,37.0697 271.894,38.0697 276,39.5C 277.07,39.472 277.903,39.1386 278.5,38.5C 281.5,38.5 284.5,38.5 287.5,38.5C 287.714,40.1439 287.38,41.6439 286.5,43C 282.179,43.499 277.846,43.6657 273.5,43.5C 269.731,43.756 266.064,43.4227 262.5,42.5C 262.833,40.5 263.167,38.5 263.5,36.5 Z"/></g>
<g><path style="opacity:1" fill="#2994cd" d="M 181.5,38.5 C 184.337,40.4023 187.671,41.069 191.5,40.5C 191.768,42.099 191.434,43.4324 190.5,44.5C 186.833,44.5 183.167,44.5 179.5,44.5C 179.875,42.3024 180.542,40.3024 181.5,38.5 Z"/></g>
<g><path style="opacity:1" fill="#319cd2" d="M 261.5,39.5 C 260.5,42.5 258.5,44.5 255.5,45.5C 245.931,44.8694 236.598,44.8694 227.5,45.5C 227.433,44.0413 227.766,42.7079 228.5,41.5C 232.167,41.5 235.833,41.5 239.5,41.5C 239.351,42.552 239.517,43.552 240,44.5C 242.475,43.0142 244.975,41.6808 247.5,40.5C 252.119,39.6864 256.786,39.3531 261.5,39.5 Z"/></g>
<g><path style="opacity:1" fill="#23c8fb" d="M 29.5,44.5 C 31.2344,47.2003 33.5677,49.2003 36.5,50.5C 37.6594,52.2503 39.326,53.2503 41.5,53.5C 42.1667,53.5 42.5,53.8333 42.5,54.5C 41.0905,56.9596 38.9238,58.2929 36,58.5C 32.8198,57.8257 29.9864,56.4924 27.5,54.5C 26.8333,53.1667 25.8333,52.1667 24.5,51.5C 23.8333,51.5 23.5,51.1667 23.5,50.5C 22.8333,50.5 22.5,50.1667 22.5,49.5C 20.4261,48.4861 18.4261,47.4861 16.5,46.5C 20.4877,43.5576 24.821,42.8909 29.5,44.5 Z"/></g>
<g><path style="opacity:1" fill="#52c0e9" d="M 163.5,38.5 C 166.625,39.4794 169.958,39.8128 173.5,39.5C 173.308,42.6008 172.642,45.6008 171.5,48.5C 176.299,51.9182 178.965,50.5848 179.5,44.5C 183.167,44.5 186.833,44.5 190.5,44.5C 190.398,49.4439 188.065,52.9439 183.5,55C 174.506,55.4998 165.506,55.6664 156.5,55.5C 152.833,55.5 149.167,55.5 145.5,55.5C 143.341,54.3786 142.007,52.5453 141.5,50C 142.29,46.644 143.29,43.4774 144.5,40.5C 148.167,40.5 151.833,40.5 155.5,40.5C 154.518,43.7635 153.851,47.0968 153.5,50.5C 156.044,50.8957 158.211,50.229 160,48.5C 160.878,44.9477 162.044,41.6144 163.5,38.5 Z"/></g>
<g><path style="opacity:1" fill="#56c5ed" d="M 255.5,45.5 C 250.395,48.8923 245.062,52.059 239.5,55C 234.467,55.8289 229.467,55.6623 224.5,54.5C 225.365,51.3381 226.365,48.3381 227.5,45.5C 236.598,44.8694 245.931,44.8694 255.5,45.5 Z"/></g>
<g><path style="opacity:0.89" fill="#57c6ec" d="M 192.5,46.5 C 196.371,46.185 200.038,46.5184 203.5,47.5C 203.221,50.1178 202.554,52.6178 201.5,55C 197.848,55.4986 194.182,55.6653 190.5,55.5C 191.01,52.4606 191.677,49.4606 192.5,46.5 Z"/></g>
<g><path style="opacity:1" fill="#55c3eb" d="M 213.5,43.5 C 217.167,43.5 220.833,43.5 224.5,43.5C 223.888,47.45 222.888,51.2834 221.5,55C 217.848,55.4986 214.182,55.6653 210.5,55.5C 211.192,51.4001 212.192,47.4001 213.5,43.5 Z"/></g>
<g><path style="opacity:0.219" fill="#59c9ef" d="M 262.5,42.5 C 266.064,43.4227 269.731,43.756 273.5,43.5C 272.911,45.3519 272.244,47.1852 271.5,49C 271.833,49.3333 272.167,49.6667 272.5,50C 277.489,50.4993 282.489,50.6659 287.5,50.5C 287.714,52.1439 287.38,53.6439 286.5,55C 279.167,55.6667 271.833,55.6667 264.5,55C 261.797,54.1347 260.464,52.3013 260.5,49.5C 260.724,46.9196 261.391,44.5862 262.5,42.5 Z"/></g>
<g><path style="opacity:1" fill="#0ac2fa" d="M 145.5,55.5 C 149.167,55.5 152.833,55.5 156.5,55.5C 141.783,70.0259 124.117,79.0259 103.5,82.5C 101.199,81.9396 98.8659,81.4396 96.5,81C 101.296,80.0905 105.963,78.7571 110.5,77C 109.944,76.6174 109.611,76.1174 109.5,75.5C 122.726,70.8905 134.726,64.2239 145.5,55.5 Z"/></g>
<g><path style="opacity:0.547" fill="#0ac4fa" d="M 109.5,75.5 C 109.611,76.1174 109.944,76.6174 110.5,77C 105.963,78.7571 101.296,80.0905 96.5,81C 98.8659,81.4396 101.199,81.9396 103.5,82.5C 74.3643,87.6784 46.6976,83.0118 20.5,68.5C 21,68.1667 21.5,67.8333 22,67.5C 50.2907,80.5076 79.4573,83.1742 109.5,75.5 Z"/></g>
<g><path style="opacity:0.618" fill="#000000" d="M 8.5,89.5 C 11.1194,89.2317 13.6194,89.565 16,90.5C 16.498,93.4816 16.6646,96.4816 16.5,99.5C 13.8333,99.5 11.1667,99.5 8.5,99.5C 8.5,96.1667 8.5,92.8333 8.5,89.5 Z M 11.5,90.5 C 14.6741,90.9522 15.0075,91.9522 12.5,93.5C 11.6143,92.675 11.281,91.675 11.5,90.5 Z M 11.5,94.5 C 14.8606,95.2032 15.1939,96.5365 12.5,98.5C 11.5713,97.3112 11.238,95.9778 11.5,94.5 Z"/></g>
<g><path style="opacity:0.758" fill="#000000" d="M 19.5,89.5 C 22.1194,89.2317 24.6194,89.565 27,90.5C 27.9558,94.9252 26.1225,96.5918 21.5,95.5C 21.762,96.9778 21.4287,98.3112 20.5,99.5C 19.513,96.2317 19.1796,92.8984 19.5,89.5 Z M 21.5,90.5 C 23.3464,90.2222 24.6798,90.8888 25.5,92.5C 24.6798,94.1112 23.3464,94.7778 21.5,94.5C 21.5,93.1667 21.5,91.8333 21.5,90.5 Z"/></g>
<g><path style="opacity:0.635" fill="#000000" d="M 29.5,89.5 C 30.8333,89.5 32.1667,89.5 33.5,89.5C 34.5,97.5 35.5,97.5 36.5,89.5C 37.5,89.5 38.5,89.5 39.5,89.5C 39.8204,92.8984 39.487,96.2317 38.5,99.5C 37.2624,95.6893 36.5958,95.6893 36.5,99.5C 35.5,99.5 34.5,99.5 33.5,99.5C 33.1667,95.5 32.8333,95.5 32.5,99.5C 31.5,99.5 30.5,99.5 29.5,99.5C 29.5,96.1667 29.5,92.8333 29.5,89.5 Z"/></g>
<g><path style="opacity:0.587" fill="#000000" d="M 49.5,89.5 C 53.6759,88.8307 55.0093,90.3307 53.5,94C 55.0037,95.3369 56.0037,97.0036 56.5,99C 53.5706,99.7772 50.7372,99.6105 48,98.5C 49.3982,95.6227 49.8982,92.6227 49.5,89.5 Z M 49.5,97.5 C 50.0768,96.2267 50.7435,96.2267 51.5,97.5C 51.0302,98.463 50.3635,98.463 49.5,97.5 Z"/></g>
<g><path style="opacity:0.77" fill="#000000" d="M 62.5,90.5 C 66.9187,89.0824 68.9187,89.0824 68.5,90.5C 67.8333,102.5 67.1667,102.5 66.5,90.5C 65.1667,90.5 63.8333,90.5 62.5,90.5 Z"/></g>
<g><path style="opacity:0.746" fill="#000000" d="M 89.5,89.5 C 91.0481,89.8212 91.7148,90.8212 91.5,92.5C 92.8333,92.5 94.1667,92.5 95.5,92.5C 95.2276,100.886 94.3942,101.22 93,93.5C 91.9827,95.3759 91.1494,97.3759 90.5,99.5C 89.513,96.2317 89.1796,92.8984 89.5,89.5 Z"/></g>
<g><path style="opacity:0.667" fill="#000000" d="M 116.5,89.5 C 117.777,90.6936 118.444,92.3603 118.5,94.5C 118.167,96.1667 117.833,97.8333 117.5,99.5C 116.513,96.2317 116.18,92.8984 116.5,89.5 Z"/></g>
<g><path style="opacity:0.618" fill="#000000" d="M 153.5,89.5 C 156.665,88.9635 159.331,89.7969 161.5,92C 159.633,92.7112 158.133,92.2112 157,90.5C 156.5,91 156,91.5 155.5,92C 157.448,92.9832 159.282,94.1498 161,95.5C 161.684,96.7839 161.517,97.9505 160.5,99C 157.331,99.9972 154.664,99.3305 152.5,97C 154.464,96.376 156.131,96.876 157.5,98.5C 158.386,97.675 158.719,96.675 158.5,95.5C 154.554,95.5123 152.887,93.5123 153.5,89.5 Z"/></g>
<g><path style="opacity:0.667" fill="#000000" d="M 172.5,89.5 C 173.777,90.6936 174.444,92.3603 174.5,94.5C 174.167,96.1667 173.833,97.8333 173.5,99.5C 172.513,96.2317 172.18,92.8984 172.5,89.5 Z"/></g>
<g><path style="opacity:0.699" fill="#000000" d="M 187.5,89.5 C 189.306,91.4598 189.64,93.6264 188.5,96C 188.755,97.3261 189.422,98.3261 190.5,99C 189.207,99.49 187.873,99.6567 186.5,99.5C 186.756,97.2075 186.423,95.0408 185.5,93C 186.305,91.8873 186.972,90.7206 187.5,89.5 Z"/></g>
<g><path style="opacity:0.467" fill="#000000" d="M 191.5,90.5 C 192.251,89.4265 193.251,89.2599 194.5,90C 193.552,90.4828 192.552,90.6495 191.5,90.5 Z"/></g>
<g><path style="opacity:0.599" fill="#000000" d="M 229.5,89.5 C 232.665,88.9635 235.331,89.7969 237.5,92C 235.633,92.7112 234.133,92.2112 233,90.5C 229.667,93.1667 229.667,95.8333 233,98.5C 236.745,94.2985 237.579,94.4651 235.5,99C 233.231,99.7581 231.064,99.5914 229,98.5C 228.264,95.408 228.431,92.408 229.5,89.5 Z"/></g>
<g><path style="opacity:0.709" fill="#000000" d="M 72.5,92.5 C 76.2407,91.5985 78.2407,92.9319 78.5,96.5C 76.8008,96.3398 75.1341,96.5065 73.5,97C 74,97.5 74.5,98 75,98.5C 76.0495,97.4829 77.2161,97.3162 78.5,98C 72.2492,100.917 70.2492,99.0839 72.5,92.5 Z M 74.5,93.5 C 77.1368,95.1538 76.8034,95.6538 73.5,95C 74.056,94.6174 74.3893,94.1174 74.5,93.5 Z"/></g>
<g><path style="opacity:0.6" fill="#000000" d="M 81.5,92.5 C 83.7505,92.1814 85.7505,92.6814 87.5,94C 86.2161,94.6838 85.0495,94.5171 84,93.5C 83.3333,95.1667 83.3333,96.8333 84,98.5C 85.0495,97.4829 86.2161,97.3162 87.5,98C 81.2492,100.917 79.2492,99.0839 81.5,92.5 Z"/></g>
<g><path style="opacity:0.742" fill="#000000" d="M 98.5,92.5 C 100.5,92.5 102.5,92.5 104.5,92.5C 104.228,100.886 103.394,101.22 102,93.5C 100.983,95.3759 100.149,97.3759 99.5,99.5C 98.5258,97.2573 98.1924,94.924 98.5,92.5 Z"/></g>
<g><path style="opacity:0.55" fill="#000000" d="M 107.5,92.5 C 112.672,91.5648 114.839,93.5648 114,98.5C 107.854,100.636 105.687,98.636 107.5,92.5 Z M 109.5,94.5 C 111.465,94.9483 111.798,95.9483 110.5,97.5C 109.614,96.675 109.281,95.675 109.5,94.5 Z"/></g>
<g><path style="opacity:0.569" fill="#000000" d="M 121.5,92.5 C 126.914,91.5646 128.914,93.5646 127.5,98.5C 121.129,100.796 119.129,98.7962 121.5,92.5 Z M 123.5,93.5 C 125.898,94.8823 126.065,96.549 124,98.5C 123.626,97.5838 123.126,96.7504 122.5,96C 123.252,95.3292 123.586,94.4959 123.5,93.5 Z"/></g>
<g><path style="opacity:0.661" fill="#000000" d="M 130.5,92.5 C 132.5,92.5 134.5,92.5 136.5,92.5C 136.665,95.5184 136.498,98.5184 136,101.5C 133.708,102.908 131.541,102.741 129.5,101C 130.784,100.316 131.951,100.483 133,101.5C 133.5,101 134,100.5 134.5,100C 129.619,99.4956 128.286,96.9956 130.5,92.5 Z M 132.5,93.5 C 134.898,94.8823 135.065,96.549 133,98.5C 132.626,97.5838 132.126,96.7504 131.5,96C 132.252,95.3292 132.586,94.4959 132.5,93.5 Z"/></g>
<g><path style="opacity:0.602" fill="#000000" d="M 138.5,93.5 C 140.267,92.35 141.433,93.0167 142,95.5C 142.833,94.5 143.667,93.5 144.5,92.5C 145.26,96.3835 144.093,99.7168 141,102.5C 139.437,101.898 139.604,101.065 141.5,100C 140.578,97.706 139.578,95.5394 138.5,93.5 Z"/></g>
<g><path style="opacity:0.684" fill="#000000" d="M 164.5,92.5 C 170.158,91.6794 171.825,93.846 169.5,99C 163.741,100.139 162.074,97.972 164.5,92.5 Z M 166.5,93.5 C 168.898,94.8823 169.065,96.549 167,98.5C 165.212,96.9769 165.045,95.3102 166.5,93.5 Z"/></g>
<g><path style="opacity:0.713" fill="#000000" d="M 177.5,92.5 C 178.999,93.6782 179.999,95.3449 180.5,97.5C 181.167,95.8333 181.833,94.1667 182.5,92.5C 183.474,94.7427 183.808,97.076 183.5,99.5C 181.5,99.5 179.5,99.5 177.5,99.5C 177.5,97.1667 177.5,94.8333 177.5,92.5 Z"/></g>
<g><path style="opacity:0.467" fill="#000000" d="M 191.5,92.5 C 192.5,92.5 193.5,92.5 194.5,92.5C 194.5,94.8333 194.5,97.1667 194.5,99.5C 193.5,99.5 192.5,99.5 191.5,99.5C 191.5,97.1667 191.5,94.8333 191.5,92.5 Z"/></g>
<g><path style="opacity:0.55" fill="#000000" d="M 196.5,92.5 C 201.672,91.5648 203.839,93.5648 203,98.5C 196.854,100.636 194.687,98.636 196.5,92.5 Z M 198.5,94.5 C 200.465,94.9483 200.798,95.9483 199.5,97.5C 198.614,96.675 198.281,95.675 198.5,94.5 Z"/></g>
<g><path style="opacity:0.631" fill="#000000" d="M 205.5,92.5 C 211.5,91.1667 213.833,93.5 212.5,99.5C 211.5,99.5 210.5,99.5 209.5,99.5C 209.511,91.7879 208.511,91.7879 206.5,99.5C 205.526,97.2573 205.192,94.924 205.5,92.5 Z"/></g>
<g><path style="opacity:0.667" fill="#000000" d="M 214.5,92.5 C 216.75,92.1814 218.75,92.6814 220.5,94C 219.833,94.3333 219.167,94.6667 218.5,95C 220.107,96.049 220.773,97.549 220.5,99.5C 218.396,99.7989 216.396,99.4656 214.5,98.5C 215.716,97.9041 217.049,97.7374 218.5,98C 217.437,96.8118 216.103,96.3118 214.5,96.5C 214.5,95.1667 214.5,93.8333 214.5,92.5 Z"/></g>
<g><path style="opacity:0.684" fill="#000000" d="M 240.5,92.5 C 246.158,91.6794 247.825,93.846 245.5,99C 239.741,100.139 238.074,97.972 240.5,92.5 Z M 242.5,93.5 C 244.898,94.8823 245.065,96.549 243,98.5C 241.212,96.9769 241.045,95.3102 242.5,93.5 Z"/></g>
<g><path style="opacity:0.718" fill="#000000" d="M 248.5,92.5 C 251.833,92.5 255.167,92.5 258.5,92.5C 258.228,100.886 257.394,101.22 256,93.5C 254.983,95.3759 254.149,97.3759 253.5,99.5C 252.596,91.7128 251.263,91.7128 249.5,99.5C 248.526,97.2573 248.192,94.924 248.5,92.5 Z"/></g>
<g><path style="opacity:0.587" fill="#000000" d="M 260.5,92.5 C 262.833,92.5 265.167,92.5 267.5,92.5C 269.034,96.4298 267.701,98.7632 263.5,99.5C 263.5,100.5 263.5,101.5 263.5,102.5C 262.5,102.5 261.5,102.5 260.5,102.5C 260.5,99.1667 260.5,95.8333 260.5,92.5 Z M 263.5,94.5 C 265.465,94.9483 265.798,95.9483 264.5,97.5C 263.614,96.675 263.281,95.675 263.5,94.5 Z"/></g>
<g><path style="opacity:0.688" fill="#000000" d="M 270.5,92.5 C 272.5,92.5 274.5,92.5 276.5,92.5C 276.244,94.7925 276.577,96.9592 277.5,99C 274.621,99.8736 271.955,99.5403 269.5,98C 270.67,96.2453 272.337,95.2453 274.5,95C 273.675,93.3117 272.675,93.1451 271.5,94.5C 270.702,94.0431 270.369,93.3764 270.5,92.5 Z"/></g>
<g><path style="opacity:0.742" fill="#000000" d="M 279.5,92.5 C 281.5,92.5 283.5,92.5 285.5,92.5C 285.228,100.886 284.394,101.22 283,93.5C 281.983,95.3759 281.149,97.3759 280.5,99.5C 279.526,97.2573 279.192,94.924 279.5,92.5 Z"/></g>
<g><path style="opacity:0.602" fill="#000000" d="M 287.5,93.5 C 289.267,92.35 290.433,93.0167 291,95.5C 291.833,94.5 292.667,93.5 293.5,92.5C 294.26,96.3835 293.093,99.7168 290,102.5C 288.437,101.898 288.604,101.065 290.5,100C 289.578,97.706 288.578,95.5394 287.5,93.5 Z"/></g>
</svg>
