<?xml version="1.0" encoding="UTF-8"?>
<!DOCTYPE svg PUBLIC "-//W3C//DTD SVG 1.1//EN" "http://www.w3.org/Graphics/SVG/1.1/DTD/svg11.dtd">
<svg xmlns="http://www.w3.org/2000/svg" version="1.1" width="280px" height="104px" style="shape-rendering:geometricPrecision; text-rendering:geometricPrecision; image-rendering:optimizeQuality; fill-rule:evenodd; clip-rule:evenodd" xmlns:xlink="http://www.w3.org/1999/xlink">
<g><path style="opacity:0.973" fill="#f79c2e" d="M 127.5,19.5 C 129.833,19.5 132.167,19.5 134.5,19.5C 134.5,22.5 134.5,25.5 134.5,28.5C 128.159,27.9984 123.659,30.665 121,36.5C 119.594,47.4363 119.094,58.4363 119.5,69.5C 116.167,69.5 112.833,69.5 109.5,69.5C 109.5,53.1667 109.5,36.8333 109.5,20.5C 112.572,20.1826 115.572,20.5159 118.5,21.5C 119,22.5 119.5,23.5 120,24.5C 122.17,22.1769 124.67,20.5103 127.5,19.5 Z"/></g>
<g><path style="opacity:0.947" fill="#f69b2d" d="M 11.5,19.5 C 15.1064,19.2108 18.6064,19.5442 22,20.5C 25.562,32.0993 29.7286,43.4327 34.5,54.5C 38.5061,43.1575 42.5061,31.8241 46.5,20.5C 50.1073,19.5108 53.774,19.1774 57.5,19.5C 51.3596,35.7918 45.193,52.1251 39,68.5C 37.2622,69.1271 35.4289,69.4604 33.5,69.5C 31.3587,69.3868 29.5253,68.7201 28,67.5C 23.1998,54.1002 18.1998,40.7669 13,27.5C 11.9207,24.9373 11.4207,22.2706 11.5,19.5 Z"/></g>
<g><path style="opacity:0.95" fill="#f69b2e" d="M 76.5,19.5 C 93.8948,19.3988 101.728,28.0655 100,45.5C 89.5821,46.4866 79.0821,46.8199 68.5,46.5C 69.1073,55.7741 74.1073,60.7741 83.5,61.5C 87.8817,60.6242 92.2151,59.6242 96.5,58.5C 97.4492,61.2075 97.4492,63.8742 96.5,66.5C 83.1891,72.233 71.6891,69.8997 62,59.5C 58.2077,51.1129 57.5411,42.4462 60,33.5C 63.3383,26.108 68.8383,21.4413 76.5,19.5 Z M 76.5,27.5 C 85.3217,25.9957 89.9883,29.6624 90.5,38.5C 83.1365,38.8306 75.8032,38.4973 68.5,37.5C 69.7803,32.8791 72.4469,29.5458 76.5,27.5 Z"/></g>
<g><path style="opacity:0.992" fill="#f69c2e" d="M 138.5,19.5 C 151.167,19.5 163.833,19.5 176.5,19.5C 176.664,22.1873 176.497,24.854 176,27.5C 167.591,37.9866 159.424,48.6533 151.5,59.5C 160.141,60.498 168.808,60.8314 177.5,60.5C 177.5,63.5 177.5,66.5 177.5,69.5C 163.833,69.5 150.167,69.5 136.5,69.5C 136.211,66.3508 136.711,63.3508 138,60.5C 146.549,50.2861 154.715,39.7861 162.5,29C 154.507,28.5003 146.507,28.3336 138.5,28.5C 138.5,25.5 138.5,22.5 138.5,19.5 Z"/></g>
<g><path style="opacity:0.963" fill="#0e66fb" d="M 239.5,19.5 C 251.429,19.6057 259.262,25.2724 263,36.5C 264.998,63.0074 253.165,73.0074 227.5,66.5C 227.215,64.712 227.548,63.0453 228.5,61.5C 249.477,63.1724 256.81,53.8391 250.5,33.5C 243.755,25.5478 236.922,25.5478 230,33.5C 228.218,42.7283 225.551,51.7283 222,60.5C 218.514,65.4975 213.681,68.3308 207.5,69C 184.756,70.5902 174.589,60.0902 177,37.5C 181.507,22.8235 191.34,17.3235 206.5,21C 214.883,25.5916 218.716,32.7583 218,42.5C 218.45,28.1202 225.617,20.4536 239.5,19.5 Z M 195.5,27.5 C 203.902,27.2354 207.902,31.2354 207.5,39.5C 203.154,39.3343 198.821,39.501 194.5,40C 191.833,42 191.833,44 194.5,46C 201.167,46.6667 207.833,46.6667 214.5,46C 215.667,45.5 216.5,44.6667 217,43.5C 216.6,58.3072 209.1,63.8072 194.5,60C 186.83,55.3532 183.996,48.5198 186,39.5C 187.23,33.7894 190.397,29.7894 195.5,27.5 Z"/></g>
<g><path style="opacity:0.433" fill="#f4f4f4" d="M 109.5,76.5 C 110.5,76.5 111.5,76.5 112.5,76.5C 112.34,78.1992 112.506,79.8659 113,81.5C 115.333,78.8333 117.667,78.8333 120,81.5C 122.269,78.9456 124.602,78.9456 127,81.5C 128.698,80.267 130.698,79.6004 133,79.5C 134.833,79.6667 136.667,79.8333 138.5,80C 139.444,82.7191 139.777,85.5525 139.5,88.5C 138.5,88.5 137.5,88.5 136.5,88.5C 136.167,80.5 135.833,80.5 135.5,88.5C 134.167,88.5 132.833,88.5 131.5,88.5C 131.167,80.5 130.833,80.5 130.5,88.5C 125.844,88.2353 121.344,88.2353 117,88.5C 115.289,88.5607 113.956,87.8941 113,86.5C 112.29,87.9733 111.124,88.6399 109.5,88.5C 109.5,84.5 109.5,80.5 109.5,76.5 Z"/></g>
<g><path style="opacity:0.576" fill="#f2f2f2" d="M 143.5,76.5 C 144.5,76.5 145.5,76.5 146.5,76.5C 146.5,77.5 146.5,78.5 146.5,79.5C 148.39,79.2965 149.89,79.9632 151,81.5C 151.956,80.1059 153.289,79.4393 155,79.5C 159.893,79.6107 164.726,79.7774 169.5,80C 171.922,82.112 171.922,84.112 169.5,86C 169.957,86.414 170.291,86.914 170.5,87.5C 165.27,89.8829 162.77,88.2162 163,82.5C 162.505,84.4727 162.338,86.4727 162.5,88.5C 157.342,88.135 152.342,88.135 147.5,88.5C 147.167,80.5 146.833,80.5 146.5,88.5C 145.5,88.5 144.5,88.5 143.5,88.5C 143.5,84.5 143.5,80.5 143.5,76.5 Z"/></g>
<g><path style="opacity:0.46" fill="#efefef" d="M 217.5,88.5 C 216.5,88.5 215.5,88.5 214.5,88.5C 214.167,80.5 213.833,80.5 213.5,88.5C 210.15,88.665 206.817,88.4983 203.5,88C 202.709,85.2501 202.709,82.4168 203.5,79.5C 209.249,79.8058 214.916,79.8058 220.5,79.5C 220.351,80.552 220.517,81.552 221,82.5C 223.048,79.1936 225.382,78.8602 228,81.5C 228.71,80.0267 229.876,79.3601 231.5,79.5C 231.351,80.552 231.517,81.552 232,82.5C 233.694,80.7604 234.861,78.7604 235.5,76.5C 236.833,76.5 238.167,76.5 239.5,76.5C 239.5,77.5 239.5,78.5 239.5,79.5C 241.39,79.2965 242.89,79.9632 244,81.5C 246.333,78.8333 248.667,78.8333 251,81.5C 251.674,80.4216 252.674,79.7549 254,79.5C 255.889,80.6035 257.723,80.6035 259.5,79.5C 262.794,80.1359 264.127,82.1359 263.5,85.5C 258.206,85.6822 258.206,86.1822 263.5,87C 258.15,90.0392 255.317,88.5392 255,82.5C 254.505,84.4727 254.338,86.4727 254.5,88.5C 249.833,88.5 245.167,88.5 240.5,88.5C 240.167,80.5 239.833,80.5 239.5,88.5C 238.167,88.5 236.833,88.5 235.5,88.5C 235.167,84.5 234.833,84.5 234.5,88.5C 232.61,88.7035 231.11,88.0368 230,86.5C 229.275,88.158 228.108,88.658 226.5,88C 225.929,86.7949 225.262,85.6283 224.5,84.5C 223.667,86.5 222.833,88.5 222,90.5C 220.644,91.3802 219.144,91.7135 217.5,91.5C 217.5,90.5 217.5,89.5 217.5,88.5 Z M 217.5,88.5 C 217.987,87.5266 218.487,86.5266 219,85.5C 219.725,87.1575 219.225,88.1575 217.5,88.5 Z"/></g>
<g><path style="opacity:0.392" fill="#f4f4f4" d="M 173.5,76.5 C 176.388,76.2196 177.888,77.5529 178,80.5C 180.33,78.9683 182.33,79.3017 184,81.5C 184.956,80.1059 186.289,79.4393 188,79.5C 190.835,80.7213 193.668,80.7213 196.5,79.5C 196.5,78.5 196.5,77.5 196.5,76.5C 197.5,76.5 198.5,76.5 199.5,76.5C 199.5,80.5 199.5,84.5 199.5,88.5C 190.874,88.3398 182.208,88.3398 173.5,88.5C 173.5,84.5 173.5,80.5 173.5,76.5 Z M 194.5,82.5 C 196.465,82.9483 196.798,83.9483 195.5,85.5C 194.614,84.675 194.281,83.675 194.5,82.5 Z"/></g>
</svg>
