<?xml version="1.0" encoding="UTF-8"?>
<svg version="1.1" xmlns="http://www.w3.org/2000/svg" width="360" height="203">
<path d="M0 0 C3.91307619 2.08866794 7.42876403 4.24328505 10.8671875 7.05078125 C11.52589844 7.58380859 12.18460938 8.11683594 12.86328125 8.66601562 C14.20941093 9.76775088 15.54282356 10.88520134 16.86328125 12.01757812 C20.41420145 14.84516273 22.75812852 16.43329068 27.3828125 15.91796875 C28.08139374 15.77289383 28.77997498 15.62781891 29.49972534 15.47834778 C32.09659818 14.98151902 34.65682318 14.68987354 37.28857422 14.44262695 C38.17503632 14.35809769 39.06149841 14.27356842 39.974823 14.18647766 C40.64313141 14.12494003 41.31143982 14.0634024 42 14 C42.25483476 20.52787269 42.42918602 27.05445239 42.54931641 33.58618164 C42.59941925 35.80476806 42.66752565 38.02302732 42.75439453 40.24047852 C43.45475359 58.58576607 43.45475359 58.58576607 40.01074219 64.30126953 C37.47285702 66.6180253 34.9560451 68.26500032 32 70 C30.76000596 71.27303758 29.52038887 72.5464425 28.28125 73.8203125 C25.43781625 75.89281527 24.30553036 76.03612317 20.75390625 75.61621094 C16.91451423 74.56826589 13.2169398 73.28293174 9.5 71.875 C8.18875866 71.41049405 6.87626127 70.94951774 5.5625 70.4921875 C2.36094032 69.36222526 -0.82337054 68.19790164 -4 67 C-4 69.97 -4 72.94 -4 76 C-9.21234498 70.8526932 -14.10987916 65.45166581 -19 60 C-19.65355469 59.27425781 -20.30710937 58.54851562 -20.98046875 57.80078125 C-25 53.24658551 -25 53.24658551 -25 51 C-28.96 50.505 -28.96 50.505 -33 50 C-33.20568854 46.3550182 -33.328407 42.71154937 -33.4375 39.0625 C-33.49615234 38.04091797 -33.55480469 37.01933594 -33.61523438 35.96679688 C-33.76407803 29.31135938 -32.84540463 24.97188275 -28.35522461 19.93188477 C-23.80905404 16.20286562 -18.55185069 14.38171005 -13.0625 12.4375 C-11.32129883 11.78297852 -11.32129883 11.78297852 -9.54492188 11.11523438 C-6.70483539 10.05166289 -3.85793215 9.01441415 -1 8 C-0.67 5.36 -0.34 2.72 0 0 Z M16.55029297 18.82617188 C15.62948944 19.00635864 14.70868591 19.18654541 13.75997925 19.37219238 C12.76410797 19.5690564 11.76823669 19.76592041 10.7421875 19.96875 C9.72399933 20.1685144 8.70581116 20.36827881 7.6567688 20.57409668 C4.39582996 21.2143017 1.13541281 21.85712196 -2.125 22.5 C-4.33199746 22.93376573 -6.53902829 23.36736169 -8.74609375 23.80078125 C-14.16445172 24.8652157 -19.58238333 25.93179937 -25 27 C-25.02887236 30.81248426 -25.04675492 34.6249407 -25.0625 38.4375 C-25.07087891 39.52611328 -25.07925781 40.61472656 -25.08789062 41.73632812 C-25.09111328 42.77080078 -25.09433594 43.80527344 -25.09765625 44.87109375 C-25.10289307 45.82943115 -25.10812988 46.78776855 -25.11352539 47.77514648 C-25.2505313 49.97285339 -25.2505313 49.97285339 -24 51 C-22.67594386 51.26702148 -21.3404936 51.4780414 -20.00268555 51.66430664 C-19.15477951 51.78435562 -18.30687347 51.9044046 -17.43327332 52.02809143 C-16.04897881 52.21721352 -16.04897881 52.21721352 -14.63671875 52.41015625 C-13.69319046 52.54191757 -12.74966217 52.67367889 -11.77754211 52.80943298 C-9.7762099 53.08794776 -7.77458702 53.36438045 -5.77270508 53.63891602 C-2.71034632 54.05936331 0.35091838 54.48715788 3.41210938 54.91601562 C5.3541057 55.18533583 7.29616117 55.45422996 9.23828125 55.72265625 C10.15507156 55.85076187 11.07186188 55.97886749 12.01643372 56.1108551 C12.87379623 56.22775192 13.73115875 56.34464874 14.61450195 56.46508789 C15.36649368 56.56866104 16.11848541 56.67223419 16.89326477 56.77894592 C19.30997665 57.06956962 19.30997665 57.06956962 23 57 C23 44.13 23 31.26 23 18 C20.74226378 18 18.76780913 18.38993919 16.55029297 18.82617188 Z " fill="#0076D5" transform="translate(88,63)"/>
<path d="M0 0 C1.134375 0.020625 2.26875 0.04125 3.4375 0.0625 C3.76548584 0.96605225 4.09347168 1.86960449 4.43139648 2.80053711 C5.64554209 6.14303673 6.86334524 9.48419371 8.08227539 12.82495117 C8.60997265 14.27282763 9.13666861 15.72106943 9.66235352 17.16967773 C10.41682068 19.24819567 11.17484369 21.32538606 11.93359375 23.40234375 C12.16904404 24.05339584 12.40449432 24.70444794 12.64707947 25.37522888 C13.62960434 28.45910126 13.62960434 28.45910126 15.4375 31.0625 C20.8825 23.6375 20.8825 23.6375 26.4375 16.0625 C23.1375 15.7325 19.8375 15.4025 16.4375 15.0625 C16.4375 13.4125 16.4375 11.7625 16.4375 10.0625 C23.0375 10.0625 29.6375 10.0625 36.4375 10.0625 C35.3125 15.6875 35.3125 15.6875 32.93359375 18.83203125 C32.19399414 19.82299805 32.19399414 19.82299805 31.43945312 20.83398438 C30.92318359 21.50751953 30.40691406 22.18105469 29.875 22.875 C29.35486328 23.56787109 28.83472656 24.26074219 28.29882812 24.97460938 C27.01950846 26.67645663 25.72953986 28.37028964 24.4375 30.0625 C28.3975 30.0625 32.3575 30.0625 36.4375 30.0625 C36.4375 31.7125 36.4375 33.3625 36.4375 35.0625 C27.1975 35.0625 17.9575 35.0625 8.4375 35.0625 C7.4475 32.4225 6.4575 29.7825 5.4375 27.0625 C1.4775 27.0625 -2.4825 27.0625 -6.5625 27.0625 C-7.5525 29.7025 -8.5425 32.3425 -9.5625 35.0625 C-11.8725 35.0625 -14.1825 35.0625 -16.5625 35.0625 C-14.39386776 27.39292081 -11.75658288 19.952382 -8.9375 12.5 C-8.32648438 10.86321289 -8.32648438 10.86321289 -7.703125 9.19335938 C-4.27164549 0.07494115 -4.27164549 0.07494115 0 0 Z M-1.5625 9.0625 C-2.06809908 10.49804025 -2.5667749 11.9360202 -3.0625 13.375 C-3.3409375 14.17550781 -3.619375 14.97601563 -3.90625 15.80078125 C-4.70183107 18.15019422 -4.70183107 18.15019422 -4.5625 21.0625 C-1.9225 21.0625 0.7175 21.0625 3.4375 21.0625 C3.12700274 19.62456608 2.8140224 18.1871682 2.5 16.75 C2.32597656 15.94949219 2.15195313 15.14898437 1.97265625 14.32421875 C1.43863841 11.917099 1.43863841 11.917099 0.4375 9.0625 C-0.2225 9.0625 -0.8825 9.0625 -1.5625 9.0625 Z " fill="#0076D5" transform="translate(171.5625,58.9375)"/>
<path d="M0 0 C18.74409449 0 18.74409449 0 24 3 C29.39274091 8.52755943 29.40532836 12.98744056 29.34375 20.5 C28.88072776 25.21440823 27.61105707 27.95464378 24 31 C15.88399648 35.96898175 10.14284366 35 0 35 C0 23.45 0 11.9 0 0 Z M7 6 C7 13.59 7 21.18 7 29 C14.55009569 29.4312403 14.55009569 29.4312403 20 26 C23.1222933 21.62878939 23.36455663 18.19357378 22.5859375 13.0546875 C21.7629206 10.16864158 20.40015163 8.74556482 18 7 C15.03103721 5.32917961 15.03103721 5.32917961 7 6 Z " fill="#0077D5" transform="translate(140,106)"/>
<path d="M0 0 C5.39204279 4.75768481 7.89402759 8.41041384 8.375 15.625 C8.27934358 20.76174952 7.2349895 25.60183797 3.66015625 29.453125 C-1.59939374 33.92824333 -5.15150943 34.21661908 -11.88671875 34.16015625 C-16.86801195 33.68481716 -19.48441073 31.45739469 -22.6875 27.8125 C-25.99433288 22.41714109 -25.50812618 15.96883949 -24.875 9.875 C-23.27826294 5.42203071 -20.98434024 2.72021161 -17.25 -0.125 C-11.53113601 -1.81947822 -5.61613643 -2.1976186 0 0 Z M-14.875 6.875 C-17.84544127 9.73935408 -18.57484714 12.69001202 -18.93359375 16.78125 C-18.83212686 20.40700027 -17.73954693 22.80751956 -15.875 25.875 C-13.22446988 28.11696152 -13.22446988 28.11696152 -9.875 28.875 C-5.71085286 28.16921235 -2.41599995 27.4041666 0.125 23.875 C1.80825534 18.82523398 2.02607581 13.80002558 -0.25 8.9375 C-2.36110548 6.25801996 -3.35440599 5.02539383 -6.6875 4.0625 C-10.5401233 3.8358751 -11.86994154 4.51968391 -14.875 6.875 Z " fill="#0076D5" transform="translate(244.875,107.125)"/>
<path d="M0 0 C3.5500802 3.4590525 4.86954757 6.30411835 5.25 11.25 C4.91540564 16.26891545 3.64565474 20.11054456 0.3125 23.9375 C-3.23368393 25.56682775 -6.1120355 25.25083642 -10 25 C-10.66 24.67 -11.32 24.34 -12 24 C-12.33 26.97 -12.66 29.94 -13 33 C-14.98 33 -16.96 33 -19 33 C-19 22.11 -19 11.22 -19 0 C-16 0 -13 0 -10 0 C-6.73060959 -1.63469521 -3.39799372 -0.99584766 0 0 Z M-11.66796875 6.2421875 C-13.35053769 8.4625864 -13.40262705 9.73729484 -13.375 12.5 C-13.38273437 13.2734375 -13.39046875 14.046875 -13.3984375 14.84375 C-12.90836323 17.49591661 -12.12263747 18.38009245 -10 20 C-7.5 20.58333333 -7.5 20.58333333 -5 20 C-2.83802263 18.21077735 -2.10842808 16.84201178 -1.75 14.05859375 C-1.63613119 10.19417091 -1.82655043 8.26017435 -4 5 C-8.09746412 4.46716301 -8.09746412 4.46716301 -11.66796875 6.2421875 Z " fill="#0076D5" transform="translate(276,116)"/>
<path d="M0 0 C2.31 0 4.62 0 7 0 C7.33 5.94 7.66 11.88 8 18 C12.47702364 19.06537205 12.47702364 19.06537205 15 19 C15.33 12.73 15.66 6.46 16 0 C18.31 0 20.62 0 23 0 C23 8.25 23 16.5 23 25 C19.66666667 25 16.33333333 25 13 25 C11.0509375 25.12375 11.0509375 25.12375 9.0625 25.25 C5.90489006 25.25580443 5.20887825 25.15531972 2.5625 23.1875 C0.30954268 20.03335975 -0.12440713 17.54140593 -0.09765625 13.76953125 C-0.09282227 12.56586914 -0.09282227 12.56586914 -0.08789062 11.33789062 C-0.07951172 10.50451172 -0.07113281 9.67113281 -0.0625 8.8125 C-0.05798828 7.96751953 -0.05347656 7.12253906 -0.04882812 6.25195312 C-0.03705403 4.16793845 -0.0191189 2.08396023 0 0 Z " fill="#0077D5" transform="translate(210,69)"/>
<path d="M0 0 C3.52334114 2.89094658 4.23427226 5.4460051 4.75 9.8125 C4.87375 11.8853125 4.87375 11.8853125 5 14 C-2.92 14.495 -2.92 14.495 -11 15 C-10.67 16.32 -10.34 17.64 -10 19 C-8.58344207 19.0272415 -7.16672955 19.04650467 -5.75 19.0625 C-4.96109375 19.07410156 -4.1721875 19.08570312 -3.359375 19.09765625 C-1.09308998 19.00385306 0.8288895 18.63241063 3 18 C3.1875 20.375 3.1875 20.375 3 23 C-1.46119443 25.97412962 -5.77047545 25.74600921 -11 25 C-14.67268956 23.15299945 -16.68231478 20.95305566 -18 17 C-18.54138857 12.3405082 -18.43067041 8.89446932 -16.375 4.625 C-11.63699953 -0.61173736 -6.69859806 -2.28523601 0 0 Z M-9.8125 5.25 C-11.28075071 7.0612603 -11.28075071 7.0612603 -11 10 C-7.7 10 -4.4 10 -1 10 C-1.62533375 7.47636012 -1.62533375 7.47636012 -3 5 C-5.90412678 3.80856337 -7.17614345 3.43182307 -9.8125 5.25 Z " fill="#0076D5" transform="translate(271,69)"/>
<path d="M0 0 C2.38312703 1.89428046 3.6500559 3.30011179 5 6 C5 8.64 5 11.28 5 14 C-0.28 14 -5.56 14 -11 14 C-10.01 15.65 -9.02 17.3 -8 19 C-3.76157566 19.40365946 -0.06901169 19.35633723 4 18 C4.1875 20.375 4.1875 20.375 4 23 C-0.4617461 25.9744974 -4.76754876 25.49796388 -10 25 C-13.03855137 23.75977495 -14.38567338 22.98684382 -16.1015625 20.23046875 C-18.14082459 15.16777896 -17.76524656 9.04065749 -15.875 4 C-10.97377257 -1.22797592 -6.61247236 -1.5997917 0 0 Z M-9.3125 5.8125 C-11.20360115 7.80346833 -11.20360115 7.80346833 -11 10 C-7.7 10 -4.4 10 -1 10 C-1.33 8.35 -1.66 6.7 -2 5 C-5.39789082 3.86736973 -6.40499937 3.53364816 -9.3125 5.8125 Z " fill="#0076D5" transform="translate(189,116)"/>
<path d="M0 0 C1.98 0 3.96 0 6 0 C6.62726108 1.54074808 7.2516901 3.08264923 7.875 4.625 C8.39707031 5.91277344 8.39707031 5.91277344 8.9296875 7.2265625 C10.04784192 10.12396993 11.03882518 13.04720169 12 16 C12.34933594 14.92878906 12.69867188 13.85757813 13.05859375 12.75390625 C13.51807145 11.35671896 13.97771546 9.95958635 14.4375 8.5625 C14.66759766 7.85544922 14.89769531 7.14839844 15.13476562 6.41992188 C16.88671875 1.11328125 16.88671875 1.11328125 18 0 C19.99958364 -0.04080783 22.00045254 -0.04254356 24 0 C23.38965243 3.48576282 22.48391539 6.5871923 21.15234375 9.86328125 C20.79462891 10.74951172 20.43691406 11.63574219 20.06835938 12.54882812 C19.69517578 13.46083984 19.32199219 14.37285156 18.9375 15.3125 C18.56044922 16.24384766 18.18339844 17.17519531 17.79492188 18.13476562 C16.86716875 20.42478917 15.93541999 22.71309996 15 25 C12.69 25 10.38 25 8 25 C6.65882147 21.39870379 5.3284161 17.79352141 4 14.1875 C3.6184375 13.16333984 3.236875 12.13917969 2.84375 11.08398438 C2.4828125 10.10107422 2.121875 9.11816406 1.75 8.10546875 C1.41484375 7.19949951 1.0796875 6.29353027 0.734375 5.36010742 C0 3 0 3 0 0 Z " fill="#0076D4" transform="translate(195,116)"/>
<path d="M0 0 C1.19882812 0.15275391 1.19882812 0.15275391 2.421875 0.30859375 C3.02515625 0.39238281 3.6284375 0.47617188 4.25 0.5625 C4.25 2.5425 4.25 4.5225 4.25 6.5625 C1.28 6.2325 -1.69 5.9025 -4.75 5.5625 C-5.08 6.8825 -5.41 8.2025 -5.75 9.5625 C-5.028125 9.665625 -4.30625 9.76875 -3.5625 9.875 C-0.3218726 10.66715336 1.67563454 11.41719545 4.25 13.5625 C5.375 16.9375 5.375 16.9375 5.25 20.5625 C3.5 23.5 3.5 23.5 0.25 25.5625 C-4.0642087 26.10255202 -8.78272056 26.54613972 -12.75 24.5625 C-12.75 22.5825 -12.75 20.6025 -12.75 18.5625 C-11.76 18.8925 -10.77 19.2225 -9.75 19.5625 C-8.35560336 19.62915376 -6.95830125 19.64788199 -5.5625 19.625 C-4.304375 19.604375 -3.04625 19.58375 -1.75 19.5625 C-1.75 18.9025 -1.75 18.2425 -1.75 17.5625 C-2.29269531 17.30855469 -2.83539063 17.05460937 -3.39453125 16.79296875 C-4.10996094 16.44878906 -4.82539063 16.10460937 -5.5625 15.75 C-6.27019531 15.41355469 -6.97789062 15.07710937 -7.70703125 14.73046875 C-9.80437289 13.53141493 -11.22210398 12.42992847 -12.75 10.5625 C-13.1875 7.625 -13.1875 7.625 -12.75 4.5625 C-9.14908283 -0.19585483 -5.68188392 -0.75201405 0 0 Z " fill="#0076D5" transform="translate(295.75,115.4375)"/>
<path d="M0 0 C0 1.98 0 3.96 0 6 C-2.31 6 -4.62 6 -7 6 C-8.18031238 9.84841348 -8.33235351 13.758279 -8.5625 17.75 C-8.60568359 18.44738281 -8.64886719 19.14476563 -8.69335938 19.86328125 C-8.79889596 21.57531922 -8.8998991 23.28763561 -9 25 C-10.98 25 -12.96 25 -15 25 C-15 16.75 -15 8.5 -15 0 C-12.33333333 0 -9.66666667 0 -7 0 C-3.86650268 -1.04449911 -3.01031744 -0.93423645 0 0 Z " fill="#0076D5" transform="translate(253,69)"/>
</svg>
