<svg version="1.1" id="Layer_1" xmlns="http://www.w3.org/2000/svg" xmlns:xlink="http://www.w3.org/1999/xlink" x="0px" y="0px"
	 width="100%" viewBox="0 0 225 225" enable-background="new 0 0 225 225" xml:space="preserve">
<path fill="#6DB33F" opacity="1.000000" stroke="none" 
	d="
M107.000000,226.000000 
	C105.285645,226.000000 103.571281,226.000000 101.238182,225.652969 
	C79.289543,222.265152 59.913490,214.775696 42.750473,200.694946 
	C45.751564,200.051926 47.985870,199.942093 49.888264,199.090652 
	C54.170532,197.174072 56.109726,192.265854 54.734310,187.736343 
	C53.415455,183.393097 48.606808,180.376755 44.222836,181.142761 
	C39.249100,182.011841 36.309578,186.078552 35.897209,192.179993 
	C35.000031,192.386566 34.495670,192.530640 33.694164,192.467285 
	C18.130579,176.858643 8.250994,158.516373 3.405501,137.412338 
	C2.681061,134.257126 1.805597,131.136581 1.000000,128.000000 
	C1.000000,118.312439 1.000000,108.624878 1.342324,98.285294 
	C1.799988,97.149857 1.932893,96.669861 2.028175,96.182518 
	C11.281527,48.853264 38.807980,18.077799 85.231033,4.527287 
	C90.390923,3.021157 95.739128,2.160179 101.000000,1.000000 
	C109.020897,1.000000 117.041801,1.000000 125.725861,1.344691 
	C152.474991,5.211539 174.923019,16.152281 194.093948,35.432037 
	C198.127426,28.516846 201.945999,21.970070 205.823578,15.322143 
	C206.162186,15.959702 206.690872,16.635096 206.901230,17.398241 
	C211.669373,34.694653 216.615891,51.946270 221.050690,69.328308 
	C223.201340,77.757751 224.380844,86.434959 226.000000,95.000000 
	C226.000000,103.687561 226.000000,112.375130 225.656662,121.751633 
	C219.363632,171.237640 193.514755,204.271637 147.009277,220.607681 
	C139.619904,223.203339 131.683502,224.241669 124.000000,226.000000 
	C122.611107,226.000000 121.222221,226.000000 119.092346,225.753860 
	C114.567581,225.671814 110.783791,225.835907 107.000000,226.000000 
M185.491074,105.200081 
	C186.043747,105.575813 186.596436,105.951546 187.195526,106.676880 
	C187.195526,106.676880 187.045776,106.996185 186.903580,107.223030 
	C186.802307,107.483162 186.813263,107.740524 186.857819,108.692398 
	C170.266479,140.535507 145.863373,163.745300 111.718399,175.828918 
	C97.964630,180.696259 83.903397,184.694824 69.982094,189.088791 
	C70.091072,189.656708 70.200043,190.224625 70.309021,190.792557 
	C73.392563,190.312286 76.468864,189.482895 79.561035,189.418732 
	C88.046318,189.242676 96.541771,189.552475 105.026863,189.372238 
	C122.977531,188.990875 141.051483,189.587433 158.841995,187.647354 
	C184.140717,184.888489 203.601074,172.445480 213.802292,148.000412 
	C218.339844,137.127136 220.442856,125.694580 220.878540,113.993095 
	C221.723404,91.301323 217.380432,69.311821 211.366608,47.583042 
	C210.392410,44.063187 209.349152,40.561371 208.274643,37.070663 
	C207.202286,33.587040 206.050583,30.127851 204.910156,26.584925 
	C184.513596,58.290855 155.902908,74.682175 119.004852,77.141541 
	C108.223846,77.860130 97.350342,78.330162 86.733871,80.159660 
	C57.354153,85.222565 37.145245,106.457062 34.728252,134.621353 
	C33.641430,147.285629 36.451851,159.167786 45.633781,168.734589 
	C49.988319,173.271652 54.877430,176.188828 61.553291,173.516373 
	C63.833801,172.603455 66.434982,172.529587 68.819458,171.832306 
	C87.444756,166.385788 106.581352,162.209213 124.536461,155.067154 
	C148.501740,145.534393 167.270706,128.442490 183.246857,107.460770 
	C183.485092,107.112091 183.723343,106.763412 183.967163,105.946770 
	C184.267410,105.614372 184.567657,105.281982 185.491074,105.200081 
z"/>
<path fill="#FEFEFE" opacity="1.000000" stroke="none" 
	d="
M36.290020,192.117508 
	C36.309578,186.078552 39.249100,182.011841 44.222836,181.142761 
	C48.606808,180.376755 53.415455,183.393097 54.734310,187.736343 
	C56.109726,192.265854 54.170532,197.174072 49.888264,199.090652 
	C47.985870,199.942093 45.751564,200.051926 42.750473,200.694946 
	C59.913490,214.775696 79.289543,222.265152 100.809723,225.652969 
	C67.740471,226.000000 34.480946,226.000000 1.000000,226.000000 
	C1.000000,193.646103 1.000000,161.291718 1.000000,128.468658 
	C1.805597,131.136581 2.681061,134.257126 3.405501,137.412338 
	C8.250994,158.516373 18.130579,176.858643 33.801506,192.692719 
	C34.826164,193.486237 35.446335,193.846924 36.066509,194.207596 
	C36.141014,193.510895 36.215515,192.814209 36.290020,192.117508 
z"/>
<path fill="#FEFEFE" opacity="1.000000" stroke="none" 
	d="
M124.468658,226.000000 
	C131.683502,224.241669 139.619904,223.203339 147.009277,220.607681 
	C193.514755,204.271637 219.363632,171.237640 225.656662,122.220284 
	C226.000000,156.592896 226.000000,191.185791 226.000000,226.000000 
	C192.312759,226.000000 158.625046,226.000000 124.468658,226.000000 
z"/>
<path fill="#FEFFFE" opacity="1.000000" stroke="none" 
	d="
M100.531342,1.000000 
	C95.739128,2.160179 90.390923,3.021157 85.231033,4.527287 
	C38.807980,18.077799 11.281527,48.853264 2.028175,96.182518 
	C1.932893,96.669861 1.799988,97.149857 1.342324,97.816635 
	C1.000000,65.738625 1.000000,33.477242 1.000000,1.000000 
	C34.020580,1.000000 67.041634,1.000000 100.531342,1.000000 
z"/>
<path fill="#FEFEFD" opacity="1.000000" stroke="none" 
	d="
M226.000000,94.531342 
	C224.380844,86.434959 223.201340,77.757751 221.050690,69.328308 
	C216.615891,51.946270 211.669373,34.694653 206.901230,17.398241 
	C206.690872,16.635096 206.162186,15.959702 205.823578,15.322143 
	C201.945999,21.970070 198.127426,28.516846 194.093948,35.432037 
	C174.923019,16.152281 152.474991,5.211539 126.194519,1.344691 
	C159.257996,1.000000 192.516006,1.000000 226.000000,1.000000 
	C226.000000,32.020527 226.000000,63.041607 226.000000,94.531342 
z"/>
<path fill="#93C575" opacity="1.000000" stroke="none" 
	d="
M107.460632,226.000000 
	C110.783791,225.835907 114.567581,225.671814 118.675690,225.753860 
	C115.307091,226.000000 111.614182,226.000000 107.460632,226.000000 
z"/>
<path fill="#FEFEFE" opacity="1.000000" stroke="none" 
	d="
M187.045776,106.996185 
	C187.045776,106.996185 187.195526,106.676880 187.488068,106.326752 
	C189.528458,101.650406 191.276306,97.324196 193.024170,92.997978 
	C192.585892,92.826675 192.147629,92.655373 191.709351,92.484070 
	C189.428864,96.639244 187.148392,100.794418 184.867905,104.949585 
	C184.567657,105.281982 184.267410,105.614372 183.681824,106.360123 
	C183.214066,107.164963 183.031662,107.556458 182.849243,107.947952 
	C167.270706,128.442490 148.501740,145.534393 124.536461,155.067154 
	C106.581352,162.209213 87.444756,166.385788 68.819458,171.832306 
	C66.434982,172.529587 63.833801,172.603455 61.553291,173.516373 
	C54.877430,176.188828 49.988319,173.271652 45.633781,168.734589 
	C36.451851,159.167786 33.641430,147.285629 34.728252,134.621353 
	C37.145245,106.457062 57.354153,85.222565 86.733871,80.159660 
	C97.350342,78.330162 108.223846,77.860130 119.004852,77.141541 
	C155.902908,74.682175 184.513596,58.290855 204.910156,26.584925 
	C206.050583,30.127851 207.202286,33.587040 208.274643,37.070663 
	C209.349152,40.561371 210.392410,44.063187 211.366608,47.583042 
	C217.380432,69.311821 221.723404,91.301323 220.878540,113.993095 
	C220.442856,125.694580 218.339844,137.127136 213.802292,148.000412 
	C203.601074,172.445480 184.140717,184.888489 158.841995,187.647354 
	C141.051483,189.587433 122.977531,188.990875 105.026863,189.372238 
	C96.541771,189.552475 88.046318,189.242676 79.561035,189.418732 
	C76.468864,189.482895 73.392563,190.312286 70.309021,190.792557 
	C70.200043,190.224625 70.091072,189.656708 69.982094,189.088791 
	C83.903397,184.694824 97.964630,180.696259 111.718399,175.828918 
	C145.863373,163.745300 170.266479,140.535507 187.012253,108.103638 
	C187.126389,107.341980 187.086075,107.169083 187.045776,106.996185 
z"/>
<path fill="#6FB440" opacity="1.000000" stroke="none" 
	d="
M185.179489,105.074837 
	C187.148392,100.794418 189.428864,96.639244 191.709351,92.484070 
	C192.147629,92.655373 192.585892,92.826675 193.024170,92.997978 
	C191.276306,97.324196 189.528458,101.650406 187.464844,106.151947 
	C186.596436,105.951546 186.043747,105.575813 185.179489,105.074837 
z"/>
<path fill="#FCFDFB" opacity="1.000000" stroke="none" 
	d="
M35.897209,192.179993 
	C36.215515,192.814209 36.141014,193.510895 36.066509,194.207596 
	C35.446335,193.846924 34.826164,193.486237 34.098648,192.900146 
	C34.495670,192.530640 35.000031,192.386566 35.897209,192.179993 
z"/>
<path fill="#6FB440" opacity="1.000000" stroke="none" 
	d="
M183.048050,107.704361 
	C183.031662,107.556458 183.214066,107.164963 183.679031,106.594101 
	C183.723343,106.763412 183.485092,107.112091 183.048050,107.704361 
z"/>
<path fill="#6FB440" opacity="1.000000" stroke="none" 
	d="
M186.974670,107.109604 
	C187.086075,107.169083 187.126389,107.341980 187.051575,107.755005 
	C186.813263,107.740524 186.802307,107.483162 186.974670,107.109604 
z"/>
</svg>